<?xml version="1.0" encoding="UTF-8"?>
<svg id="Capa_2" data-name="Capa 2" xmlns="http://www.w3.org/2000/svg" xmlns:xlink="http://www.w3.org/1999/xlink" viewBox="0 0 255.77 82.62">
  <defs>
    <style>
      .cls-1 {
        filter: url(#drop-shadow-1);
      }
    </style>
    <filter id="drop-shadow-1" filterUnits="userSpaceOnUse">
      <feOffset dx="-1.11" dy="1.11"/>
      <feGaussianBlur result="blur" stdDeviation="1.11"/>
      <feFlood flood-color="#000" flood-opacity=".1"/>
      <feComposite in2="blur" operator="in"/>
      <feComposite in="SourceGraphic"/>
    </filter>
  </defs>
  <g id="Capa_1-2" data-name="Capa 1">
    <g class="cls-1">
      <polygon points="149.15 24.28 165.28 24.28 166.63 16.29 150.49 16.29 151.84 7.97 169.74 7.97 171.09 0 143.38 0 136.64 40.59 146.45 40.59 149.15 24.28"/>
      <path d="M189.32,19.9c-.11,.62-.43,1.1-.98,1.43-.55,.33-1.37,.59-2.46,.77-1.09,.19-2.51,.36-4.25,.52-1.56,.13-3.05,.39-4.48,.77-1.43,.38-2.72,.94-3.87,1.66-1.16,.73-2.13,1.67-2.92,2.82-.79,1.16-1.33,2.58-1.61,4.27-.34,2-.19,3.66,.46,4.99,.65,1.33,1.67,2.33,3.06,2.98,1.39,.65,3.06,.98,4.98,.98,1.41,0,2.72-.18,3.9-.54,1.19-.36,2.26-.89,3.22-1.61,.96-.71,1.79-1.59,2.51-2.62h.24l-.71,4.24h9.12l3.45-20.69c.28-1.61,.18-3.05-.28-4.3-.46-1.26-1.23-2.32-2.31-3.18-1.08-.87-2.4-1.53-3.95-1.98-1.56-.46-3.3-.68-5.23-.68-2.74,0-5.14,.42-7.22,1.26-2.08,.84-3.8,1.99-5.14,3.45-1.35,1.46-2.3,3.12-2.85,4.96l8.86,.32c.37-.99,1-1.76,1.9-2.31,.9-.55,1.98-.82,3.25-.82,1.19,0,2.08,.28,2.68,.83,.59,.55,.81,1.34,.65,2.36v.1Zm-1.59,9.87c-.17,.99-.57,1.86-1.2,2.61-.63,.75-1.39,1.33-2.3,1.75s-1.88,.63-2.92,.63c-1.12,0-2-.27-2.62-.8-.62-.54-.86-1.3-.71-2.29,.11-.66,.37-1.23,.78-1.71,.42-.48,.97-.88,1.67-1.18,.7-.3,1.52-.53,2.46-.67,.45-.08,.92-.16,1.43-.24,.5-.08,.99-.17,1.47-.28,.48-.11,.92-.21,1.35-.33,.42-.11,.77-.24,1.05-.39l-.46,2.89Z"/>
      <path d="M218.78,33.59c-.98,.59-2.16,.88-3.54,.85-1.23-.03-2.21-.32-2.93-.88-.73-.56-1.12-1.4-1.17-2.53l-9.43,.24c-.13,2.99,.93,5.38,3.2,7.18,2.27,1.8,5.63,2.71,10.1,2.71,2.66,0,5.07-.4,7.25-1.2,2.18-.8,3.98-1.93,5.4-3.4,1.42-1.47,2.3-3.2,2.65-5.21,.38-2.34-.09-4.23-1.42-5.67-1.33-1.44-3.46-2.45-6.39-3.03l-5.71-1.11c-1.23-.26-2.02-.57-2.39-.91-.36-.34-.5-.75-.41-1.23,.13-.89,.69-1.61,1.66-2.17,.98-.56,2.09-.84,3.33-.84,.78,0,1.45,.14,2,.42s.98,.66,1.29,1.16c.3,.5,.45,1.07,.44,1.71l8.74-.24c.26-3-.69-5.36-2.86-7.1-2.17-1.73-5.39-2.6-9.64-2.6-2.66,0-5.02,.36-7.09,1.07-2.07,.71-3.74,1.75-5.01,3.12-1.28,1.37-2.08,3.03-2.41,4.98-.41,2.44,.04,4.46,1.35,6.05,1.31,1.59,3.44,2.67,6.4,3.22l5.13,1.01c1.24,.25,2.09,.54,2.55,.85,.46,.32,.65,.76,.58,1.33-.13,.87-.69,1.61-1.67,2.2Z"/>
      <path d="M249.08,17.28h5.49l1.21-7.13h-5.51l1.21-7.29h-9.69l-1.21,7.29h-4.01l-1.21,7.13h4.03l-2.45,14.8c-.38,2.05-.27,3.75,.35,5.1,.61,1.35,1.68,2.36,3.2,3,1.52,.65,3.44,.92,5.77,.83,1.15-.05,2.16-.18,3.02-.37,.87-.19,1.56-.36,2.09-.51l-.34-7c-.22,.04-.56,.1-.99,.18-.44,.08-.83,.12-1.19,.12-.52,0-.95-.08-1.3-.23-.35-.15-.59-.41-.71-.77-.13-.36-.14-.84-.05-1.44l2.28-13.73Z"/>
      <path d="M161.89,50.75c-.79-1.95-2.11-3.47-3.98-4.56-1.86-1.09-4.2-1.64-7.01-1.64h-15.51l-6.23,37.54h9.07l1.94-11.66h6.14c2.88,0,5.46-.53,7.74-1.59,2.27-1.06,4.13-2.55,5.58-4.49,1.45-1.94,2.38-4.21,2.8-6.81,.43-2.58,.25-4.84-.54-6.79Zm-8.86,6.79c-.18,1.16-.58,2.17-1.19,3.02-.61,.86-1.42,1.52-2.43,2s-2.2,.72-3.58,.72h-4.45l1.9-11.42h4.47c1.36,0,2.46,.23,3.31,.7,.85,.46,1.44,1.12,1.77,1.97,.33,.85,.4,1.85,.2,3.02Z"/>
      <path d="M187.37,56.03c-1-.8-2.22-1.41-3.66-1.83-1.44-.42-3.05-.63-4.84-.63-2.53,0-4.76,.39-6.68,1.16-1.92,.78-3.51,1.84-4.76,3.19-1.25,1.35-2.13,2.88-2.64,4.59l8.19,.29c.34-.92,.93-1.63,1.76-2.14,.83-.51,1.83-.76,3.01-.76,1.1,0,1.92,.26,2.47,.77,.55,.51,.75,1.24,.6,2.18v.09c-.1,.57-.4,1.01-.91,1.32-.51,.31-1.26,.54-2.27,.71-1.01,.17-2.32,.33-3.93,.48-1.44,.12-2.82,.36-4.14,.71-1.32,.35-2.51,.87-3.58,1.54s-1.97,1.54-2.7,2.61c-.73,1.07-1.23,2.39-1.48,3.95-.32,1.85-.18,3.39,.42,4.62,.6,1.23,1.54,2.15,2.83,2.76,1.29,.6,2.83,.91,4.61,.91,1.31,0,2.51-.16,3.61-.49,1.1-.33,2.09-.82,2.98-1.48,.89-.66,1.66-1.47,2.32-2.42h.22l-.66,3.92h8.43l3.19-19.14c.26-1.49,.17-2.82-.26-3.98-.43-1.16-1.14-2.14-2.14-2.94Zm-8,16.05c-.16,.92-.53,1.72-1.11,2.41-.58,.69-1.29,1.23-2.13,1.62-.84,.39-1.74,.59-2.7,.59-1.04,0-1.85-.25-2.42-.74s-.79-1.2-.66-2.12c.1-.61,.34-1.14,.72-1.59,.38-.45,.9-.81,1.55-1.09,.65-.28,1.4-.49,2.27-.62,.42-.07,.86-.15,1.32-.22,.46-.07,.92-.16,1.36-.26,.44-.1,.86-.2,1.25-.3,.39-.1,.71-.22,.97-.36l-.42,2.68Z"/>
      <path d="M217.15,55.97c-2.01-1.6-4.98-2.4-8.92-2.4-2.46,0-4.64,.33-6.55,.99s-3.46,1.62-4.64,2.89c-1.18,1.26-1.92,2.8-2.23,4.61-.38,2.26,.04,4.13,1.25,5.6,1.21,1.47,3.18,2.47,5.92,2.98l4.75,.93c1.15,.23,1.93,.49,2.36,.79,.42,.29,.6,.7,.54,1.23-.12,.81-.64,1.48-1.55,2.03-.91,.55-2,.81-3.27,.79-1.14-.02-2.04-.3-2.71-.82s-1.03-1.3-1.08-2.34l-8.72,.22c-.12,2.76,.86,4.98,2.96,6.64,2.1,1.67,5.21,2.5,9.34,2.5,2.46,0,4.69-.37,6.71-1.11,2.02-.74,3.68-1.79,5-3.14,1.31-1.36,2.13-2.96,2.45-4.82,.35-2.16-.08-3.91-1.31-5.24-1.23-1.33-3.2-2.27-5.91-2.8l-5.28-1.03c-1.14-.24-1.87-.53-2.21-.84-.34-.32-.46-.7-.38-1.14,.12-.82,.64-1.49,1.54-2.01,.9-.52,1.93-.78,3.08-.78,.72,0,1.34,.13,1.85,.39,.51,.26,.91,.61,1.19,1.07,.28,.46,.42,.99,.4,1.59l8.08-.22c.24-2.77-.64-4.96-2.65-6.56Z"/>
      <path d="M246.83,55.97c-2.01-1.6-4.98-2.4-8.92-2.4-2.46,0-4.64,.33-6.55,.99s-3.46,1.62-4.64,2.89c-1.18,1.26-1.92,2.8-2.23,4.61-.38,2.26,.04,4.13,1.25,5.6,1.21,1.47,3.18,2.47,5.92,2.98l4.75,.93c1.15,.23,1.93,.49,2.36,.79,.42,.29,.6,.7,.54,1.23-.12,.81-.64,1.48-1.55,2.03-.91,.55-2,.81-3.27,.79-1.14-.02-2.04-.3-2.71-.82s-1.03-1.3-1.08-2.34l-8.72,.22c-.12,2.76,.86,4.98,2.96,6.64,2.1,1.67,5.21,2.5,9.34,2.5,2.46,0,4.69-.37,6.71-1.11,2.02-.74,3.68-1.79,5-3.14,1.31-1.36,2.13-2.96,2.45-4.82,.35-2.16-.08-3.91-1.31-5.24-1.23-1.33-3.2-2.27-5.91-2.8l-5.28-1.03c-1.14-.24-1.87-.53-2.21-.84-.34-.32-.46-.7-.38-1.14,.12-.82,.64-1.49,1.54-2.01,.9-.52,1.93-.78,3.08-.78,.72,0,1.34,.13,1.85,.39,.51,.26,.91,.61,1.19,1.07,.28,.46,.42,.99,.4,1.59l8.08-.22c.24-2.77-.64-4.96-2.65-6.56Z"/>
      <path d="M123.69,41.38H49.59c-1.76,0-3.37,1.43-3.58,3.19-.22,1.76,1.04,3.19,2.8,3.19H122.91c1.76,0,3.37-1.43,3.58-3.19,.22-1.76-1.04-3.19-2.8-3.19Z"/>
      <path d="M55.18,35.81H119.46c1.58,0,3.14-.71,4.28-1.95,1.14-1.24,1.69-2.84,1.52-4.38C123.35,12.12,109.56,0,91.72,0S57.11,12.12,50.93,29.47c-.55,1.54-.39,3.14,.45,4.38,.83,1.24,2.22,1.95,3.8,1.95ZM90.93,6.38c14.34,0,25.54,9.4,27.73,23.04H57.54c5.54-13.64,19.05-23.04,33.39-23.04Z"/>
      <path d="M117.75,52.66H52.62c-1.4,0-2.78,.55-3.88,1.55-1.1,1-1.78,2.32-1.92,3.72-.63,6.34,1.29,11.43,5.27,14.59,.76-2.18,2.13-4.1,3.88-5.58-2.31-2.12-2.92-5.13-2.84-7.9h62.54c-.6,2.74-1.92,5.73-4.7,7.85,1.41,1.46,2.33,3.38,2.56,5.55,4.7-3.17,7.81-8.22,8.73-14.5,.2-1.4-.15-2.72-1.01-3.72-.86-1-2.1-1.55-3.5-1.55Z"/>
      <path d="M73.34,74.9c-.03,.27-.09,.53-.14,.8h18.45c.01-.27,.02-.53,.06-.8,.25-2.04,1.06-3.95,2.24-5.59h-21.48c.78,1.63,1.12,3.54,.87,5.59Z"/>
      <path d="M63.32,67.72c-1.44,0-2.83,.43-4.04,1.15-2,1.21-3.52,3.24-3.95,5.59-.03,.14-.06,.29-.07,.44-.49,3.96,2.33,7.18,6.3,7.18,3.7,0,7.08-2.79,7.92-6.38,.06-.27,.11-.53,.15-.8,.28-2.26-.52-4.27-1.98-5.59-1.11-1-2.61-1.6-4.32-1.6Z"/>
      <path d="M107.2,68.85c-1.02-.71-2.29-1.12-3.71-1.12-1.71,0-3.35,.6-4.71,1.6-1.79,1.31-3.08,3.32-3.36,5.59-.03,.27-.05,.53-.05,.8-.04,3.59,2.65,6.38,6.35,6.38,3.97,0,7.58-3.22,8.06-7.18,.02-.17,.02-.33,.03-.49,.13-2.34-.9-4.37-2.63-5.56Z"/>
      <path d="M43.91,29.42H24.46c-1.76,0-3.37,1.43-3.58,3.19s1.04,3.19,2.8,3.19h19.45c1.76,0,3.37-1.43,3.58-3.19,.22-1.76-1.04-3.19-2.8-3.19Z"/>
      <path d="M35.6,44.57c.22-1.76-1.04-3.19-2.8-3.19H3.61c-1.76,0-3.37,1.43-3.58,3.19-.22,1.76,1.04,3.19,2.8,3.19h29.19c1.76,0,3.37-1.43,3.58-3.19Z"/>
      <path d="M38.46,52.67H16.82c-1.76,0-3.37,1.43-3.58,3.19-.22,1.76,1.04,3.19,2.8,3.19h21.64c1.76,0,3.37-1.43,3.58-3.19s-1.04-3.19-2.8-3.19Z"/>
    </g>
  </g>
</svg>